<svg xmlns="http://www.w3.org/2000/svg" viewBox="0 0 1024 1024" width="1024" height="1024">
  <defs>
    <linearGradient id="g" x1="0" y1="0" x2="0" y2="1">
      <stop offset="0" stop-color="#1c222b"></stop><stop offset="0.46" stop-color="#10141a"></stop><stop offset="1" stop-color="#080a0e"></stop>
    </linearGradient>
    <radialGradient id="v" cx="0.5" cy="0.30" r="0.85">
      <stop offset="0" stop-color="#000000" stop-opacity="0"></stop><stop offset="1" stop-color="#000000" stop-opacity="0.40"></stop>
    </radialGradient>
    <linearGradient id="t" x1="0" y1="0" x2="0" y2="1">
      <stop offset="0" stop-color="#ffffff" stop-opacity="0.07"></stop><stop offset="0.32" stop-color="#ffffff" stop-opacity="0"></stop>
    </linearGradient>
    <clipPath id="clip"><path d="M1024.00 512.00L1023.92 635.47L1023.67 674.89L1023.25 703.52L1022.66 726.79L1021.91 746.73L1020.99 764.34L1019.90 780.20L1018.64 794.68L1017.20 808.04L1015.60 820.46L1013.83 832.08L1011.88 843.00L1009.75 853.30L1007.45 863.05L1004.97 872.30L1002.30 881.09L999.46 889.46L996.43 897.44L993.21 905.06L989.79 912.34L986.19 919.30L982.38 925.96L978.38 932.33L974.17 938.42L969.74 944.24L965.10 949.82L960.24 955.15L955.15 960.24L949.82 965.10L944.24 969.74L938.42 974.17L932.33 978.38L925.96 982.38L919.30 986.19L912.34 989.79L905.06 993.21L897.44 996.43L889.46 999.46L881.09 1002.30L872.30 1004.97L863.05 1007.45L853.30 1009.75L843.00 1011.88L832.08 1013.83L820.46 1015.60L808.04 1017.20L794.68 1018.64L780.20 1019.90L764.34 1020.99L746.73 1021.91L726.79 1022.66L703.52 1023.25L674.89 1023.67L635.47 1023.92L512.00 1024.00L388.53 1023.92L349.11 1023.67L320.48 1023.25L297.21 1022.66L277.27 1021.91L259.66 1020.99L243.80 1019.90L229.32 1018.64L215.96 1017.20L203.54 1015.60L191.92 1013.83L181.00 1011.88L170.70 1009.75L160.95 1007.45L151.70 1004.97L142.91 1002.30L134.54 999.46L126.56 996.43L118.94 993.21L111.66 989.79L104.70 986.19L98.04 982.38L91.67 978.38L85.58 974.17L79.76 969.74L74.18 965.10L68.85 960.24L63.76 955.15L58.90 949.82L54.26 944.24L49.83 938.42L45.62 932.33L41.62 925.96L37.81 919.30L34.21 912.34L30.79 905.06L27.57 897.44L24.54 889.46L21.70 881.09L19.03 872.30L16.55 863.05L14.25 853.30L12.12 843.00L10.17 832.08L8.40 820.46L6.80 808.04L5.36 794.68L4.10 780.20L3.01 764.34L2.09 746.73L1.34 726.79L0.75 703.52L0.33 674.89L0.08 635.47L0.00 512.00L0.08 388.53L0.33 349.11L0.75 320.48L1.34 297.21L2.09 277.27L3.01 259.66L4.10 243.80L5.36 229.32L6.80 215.96L8.40 203.54L10.17 191.92L12.12 181.00L14.25 170.70L16.55 160.95L19.03 151.70L21.70 142.91L24.54 134.54L27.57 126.56L30.79 118.94L34.21 111.66L37.81 104.70L41.62 98.04L45.62 91.67L49.83 85.58L54.26 79.76L58.90 74.18L63.76 68.85L68.85 63.76L74.18 58.90L79.76 54.26L85.58 49.83L91.67 45.62L98.04 41.62L104.70 37.81L111.66 34.21L118.94 30.79L126.56 27.57L134.54 24.54L142.91 21.70L151.70 19.03L160.95 16.55L170.70 14.25L181.00 12.12L191.92 10.17L203.54 8.40L215.96 6.80L229.32 5.36L243.80 4.10L259.66 3.01L277.27 2.09L297.21 1.34L320.48 0.75L349.11 0.33L388.53 0.08L512.00 0.00L635.47 0.08L674.89 0.33L703.52 0.75L726.79 1.34L746.73 2.09L764.34 3.01L780.20 4.10L794.68 5.36L808.04 6.80L820.46 8.40L832.08 10.17L843.00 12.12L853.30 14.25L863.05 16.55L872.30 19.03L881.09 21.70L889.46 24.54L897.44 27.57L905.06 30.79L912.34 34.21L919.30 37.81L925.96 41.62L932.33 45.62L938.42 49.83L944.24 54.26L949.82 58.90L955.15 63.76L960.24 68.85L965.10 74.18L969.74 79.76L974.17 85.58L978.38 91.67L982.38 98.04L986.19 104.70L989.79 111.66L993.21 118.94L996.43 126.56L999.46 134.54L1002.30 142.91L1004.97 151.70L1007.45 160.95L1009.75 170.70L1011.88 181.00L1013.83 191.92L1015.60 203.54L1017.20 215.96L1018.64 229.32L1019.90 243.80L1020.99 259.66L1021.91 277.27L1022.66 297.21L1023.25 320.48L1023.67 349.11L1023.92 388.53L1024.00 512.00Z"></path></clipPath>
  </defs>
  <path d="M1024.00 512.00L1023.92 635.47L1023.67 674.89L1023.25 703.52L1022.66 726.79L1021.91 746.73L1020.99 764.34L1019.90 780.20L1018.64 794.68L1017.20 808.04L1015.60 820.46L1013.83 832.08L1011.88 843.00L1009.75 853.30L1007.45 863.05L1004.97 872.30L1002.30 881.09L999.46 889.46L996.43 897.44L993.21 905.06L989.79 912.34L986.19 919.30L982.38 925.96L978.38 932.33L974.17 938.42L969.74 944.24L965.10 949.82L960.24 955.15L955.15 960.24L949.82 965.10L944.24 969.74L938.42 974.17L932.33 978.38L925.96 982.38L919.30 986.19L912.34 989.79L905.06 993.21L897.44 996.43L889.46 999.46L881.09 1002.30L872.30 1004.97L863.05 1007.45L853.30 1009.75L843.00 1011.88L832.08 1013.83L820.46 1015.60L808.04 1017.20L794.68 1018.64L780.20 1019.90L764.34 1020.99L746.73 1021.91L726.79 1022.66L703.52 1023.25L674.89 1023.67L635.47 1023.92L512.00 1024.00L388.53 1023.92L349.11 1023.67L320.48 1023.25L297.21 1022.66L277.27 1021.91L259.66 1020.99L243.80 1019.90L229.32 1018.64L215.96 1017.20L203.54 1015.60L191.92 1013.83L181.00 1011.88L170.70 1009.75L160.95 1007.45L151.70 1004.97L142.91 1002.30L134.54 999.46L126.56 996.43L118.94 993.21L111.66 989.79L104.70 986.19L98.04 982.38L91.67 978.38L85.58 974.17L79.76 969.74L74.18 965.10L68.85 960.24L63.76 955.15L58.90 949.82L54.26 944.24L49.83 938.42L45.62 932.33L41.62 925.96L37.81 919.30L34.21 912.34L30.79 905.06L27.57 897.44L24.54 889.46L21.70 881.09L19.03 872.30L16.55 863.05L14.25 853.30L12.12 843.00L10.17 832.08L8.40 820.46L6.80 808.04L5.36 794.68L4.10 780.20L3.01 764.34L2.09 746.73L1.34 726.79L0.75 703.52L0.33 674.89L0.08 635.47L0.00 512.00L0.08 388.53L0.33 349.11L0.75 320.48L1.34 297.21L2.09 277.27L3.01 259.66L4.10 243.80L5.36 229.32L6.80 215.96L8.40 203.54L10.17 191.92L12.12 181.00L14.25 170.70L16.55 160.95L19.03 151.70L21.70 142.91L24.54 134.54L27.57 126.56L30.79 118.94L34.21 111.66L37.81 104.70L41.62 98.04L45.62 91.67L49.83 85.58L54.26 79.76L58.90 74.18L63.76 68.85L68.85 63.76L74.18 58.90L79.76 54.26L85.58 49.83L91.67 45.62L98.04 41.62L104.70 37.81L111.66 34.21L118.94 30.79L126.56 27.57L134.54 24.54L142.91 21.70L151.70 19.03L160.95 16.55L170.70 14.25L181.00 12.12L191.92 10.17L203.54 8.40L215.96 6.80L229.32 5.36L243.80 4.10L259.66 3.01L277.27 2.09L297.21 1.34L320.48 0.75L349.11 0.33L388.53 0.08L512.00 0.00L635.47 0.08L674.89 0.33L703.52 0.75L726.79 1.34L746.73 2.09L764.34 3.01L780.20 4.10L794.68 5.36L808.04 6.80L820.46 8.40L832.08 10.17L843.00 12.12L853.30 14.25L863.05 16.55L872.30 19.03L881.09 21.70L889.46 24.54L897.44 27.57L905.06 30.79L912.34 34.21L919.30 37.81L925.96 41.62L932.33 45.62L938.42 49.83L944.24 54.26L949.82 58.90L955.15 63.76L960.24 68.85L965.10 74.18L969.74 79.76L974.17 85.58L978.38 91.67L982.38 98.04L986.19 104.70L989.79 111.66L993.21 118.94L996.43 126.56L999.46 134.54L1002.30 142.91L1004.97 151.70L1007.45 160.95L1009.75 170.70L1011.88 181.00L1013.83 191.92L1015.60 203.54L1017.20 215.96L1018.64 229.32L1019.90 243.80L1020.99 259.66L1021.91 277.27L1022.66 297.21L1023.25 320.48L1023.67 349.11L1023.92 388.53L1024.00 512.00Z" fill="url(#g)"></path>
  <path d="M1024.00 512.00L1023.92 635.47L1023.67 674.89L1023.25 703.52L1022.66 726.79L1021.91 746.73L1020.99 764.34L1019.90 780.20L1018.64 794.68L1017.20 808.04L1015.60 820.46L1013.83 832.08L1011.88 843.00L1009.75 853.30L1007.45 863.05L1004.97 872.30L1002.30 881.09L999.46 889.46L996.43 897.44L993.21 905.06L989.79 912.34L986.19 919.30L982.38 925.96L978.38 932.33L974.17 938.42L969.74 944.24L965.10 949.82L960.24 955.15L955.15 960.24L949.82 965.10L944.24 969.74L938.42 974.17L932.33 978.38L925.96 982.38L919.30 986.19L912.34 989.79L905.06 993.21L897.44 996.43L889.46 999.46L881.09 1002.30L872.30 1004.97L863.05 1007.45L853.30 1009.75L843.00 1011.88L832.08 1013.83L820.46 1015.60L808.04 1017.20L794.68 1018.64L780.20 1019.90L764.34 1020.99L746.73 1021.91L726.79 1022.66L703.52 1023.25L674.89 1023.67L635.47 1023.92L512.00 1024.00L388.53 1023.92L349.11 1023.67L320.48 1023.25L297.21 1022.66L277.27 1021.91L259.66 1020.99L243.80 1019.90L229.32 1018.64L215.96 1017.20L203.54 1015.60L191.92 1013.83L181.00 1011.88L170.70 1009.75L160.95 1007.45L151.70 1004.97L142.91 1002.30L134.54 999.46L126.56 996.43L118.94 993.21L111.66 989.79L104.70 986.19L98.04 982.38L91.67 978.38L85.58 974.17L79.76 969.74L74.18 965.10L68.85 960.24L63.76 955.15L58.90 949.82L54.26 944.24L49.83 938.42L45.62 932.33L41.62 925.96L37.81 919.30L34.21 912.34L30.79 905.06L27.57 897.44L24.54 889.46L21.70 881.09L19.03 872.30L16.55 863.05L14.25 853.30L12.12 843.00L10.17 832.08L8.40 820.46L6.80 808.04L5.36 794.68L4.10 780.20L3.01 764.34L2.09 746.73L1.34 726.79L0.75 703.52L0.33 674.89L0.08 635.47L0.00 512.00L0.08 388.53L0.33 349.11L0.75 320.48L1.34 297.21L2.09 277.27L3.01 259.66L4.10 243.80L5.36 229.32L6.80 215.96L8.40 203.54L10.17 191.92L12.12 181.00L14.25 170.70L16.55 160.95L19.03 151.70L21.70 142.91L24.54 134.54L27.57 126.56L30.79 118.94L34.21 111.66L37.81 104.70L41.62 98.04L45.62 91.67L49.83 85.58L54.26 79.76L58.90 74.18L63.76 68.85L68.85 63.76L74.18 58.90L79.76 54.26L85.58 49.83L91.67 45.62L98.04 41.62L104.70 37.81L111.66 34.21L118.94 30.79L126.56 27.57L134.54 24.54L142.91 21.70L151.70 19.03L160.95 16.55L170.70 14.25L181.00 12.12L191.92 10.17L203.54 8.40L215.96 6.80L229.32 5.36L243.80 4.10L259.66 3.01L277.27 2.09L297.21 1.34L320.48 0.75L349.11 0.33L388.53 0.08L512.00 0.00L635.47 0.08L674.89 0.33L703.52 0.75L726.79 1.34L746.73 2.09L764.34 3.01L780.20 4.10L794.68 5.36L808.04 6.80L820.46 8.40L832.08 10.17L843.00 12.12L853.30 14.25L863.05 16.55L872.30 19.03L881.09 21.70L889.46 24.54L897.44 27.57L905.06 30.79L912.34 34.21L919.30 37.81L925.96 41.62L932.33 45.62L938.42 49.83L944.24 54.26L949.82 58.90L955.15 63.76L960.24 68.85L965.10 74.18L969.74 79.76L974.17 85.58L978.38 91.67L982.38 98.04L986.19 104.70L989.79 111.66L993.21 118.94L996.43 126.56L999.46 134.54L1002.30 142.91L1004.97 151.70L1007.45 160.95L1009.75 170.70L1011.88 181.00L1013.83 191.92L1015.60 203.54L1017.20 215.96L1018.64 229.32L1019.90 243.80L1020.99 259.66L1021.91 277.27L1022.66 297.21L1023.25 320.48L1023.67 349.11L1023.92 388.53L1024.00 512.00Z" fill="url(#v)"></path>
  <path d="M1024.00 512.00L1023.92 635.47L1023.67 674.89L1023.25 703.52L1022.66 726.79L1021.91 746.73L1020.99 764.34L1019.90 780.20L1018.64 794.68L1017.20 808.04L1015.60 820.46L1013.83 832.08L1011.88 843.00L1009.75 853.30L1007.45 863.05L1004.97 872.30L1002.30 881.09L999.46 889.46L996.43 897.44L993.21 905.06L989.79 912.34L986.19 919.30L982.38 925.96L978.38 932.33L974.17 938.42L969.74 944.24L965.10 949.82L960.24 955.15L955.15 960.24L949.82 965.10L944.24 969.74L938.42 974.17L932.33 978.38L925.96 982.38L919.30 986.19L912.34 989.79L905.06 993.21L897.44 996.43L889.46 999.46L881.09 1002.30L872.30 1004.97L863.05 1007.45L853.30 1009.75L843.00 1011.88L832.08 1013.83L820.46 1015.60L808.04 1017.20L794.68 1018.64L780.20 1019.90L764.34 1020.99L746.73 1021.91L726.79 1022.66L703.52 1023.25L674.89 1023.67L635.47 1023.92L512.00 1024.00L388.53 1023.92L349.11 1023.67L320.48 1023.25L297.21 1022.66L277.27 1021.91L259.66 1020.99L243.80 1019.90L229.32 1018.64L215.96 1017.20L203.54 1015.60L191.92 1013.83L181.00 1011.88L170.70 1009.75L160.95 1007.45L151.70 1004.97L142.91 1002.30L134.54 999.46L126.56 996.43L118.94 993.21L111.66 989.79L104.70 986.19L98.04 982.38L91.67 978.38L85.58 974.17L79.76 969.74L74.18 965.10L68.85 960.24L63.76 955.15L58.90 949.82L54.26 944.24L49.83 938.42L45.62 932.33L41.62 925.96L37.81 919.30L34.21 912.34L30.79 905.06L27.57 897.44L24.54 889.46L21.70 881.09L19.03 872.30L16.55 863.05L14.25 853.30L12.12 843.00L10.17 832.08L8.40 820.46L6.80 808.04L5.36 794.68L4.10 780.20L3.01 764.34L2.09 746.73L1.34 726.79L0.75 703.52L0.33 674.89L0.08 635.47L0.00 512.00L0.08 388.53L0.33 349.11L0.75 320.48L1.34 297.21L2.09 277.27L3.01 259.66L4.10 243.80L5.36 229.32L6.80 215.96L8.40 203.54L10.17 191.92L12.12 181.00L14.25 170.70L16.55 160.95L19.03 151.70L21.70 142.91L24.54 134.54L27.57 126.56L30.79 118.94L34.21 111.66L37.81 104.70L41.62 98.04L45.62 91.67L49.83 85.58L54.26 79.76L58.90 74.18L63.76 68.85L68.85 63.76L74.18 58.90L79.76 54.26L85.58 49.83L91.67 45.62L98.04 41.62L104.70 37.81L111.66 34.21L118.94 30.79L126.56 27.57L134.54 24.54L142.91 21.70L151.70 19.03L160.95 16.55L170.70 14.25L181.00 12.12L191.92 10.17L203.54 8.40L215.96 6.80L229.32 5.36L243.80 4.10L259.66 3.01L277.27 2.09L297.21 1.34L320.48 0.75L349.11 0.33L388.53 0.08L512.00 0.00L635.47 0.08L674.89 0.33L703.52 0.75L726.79 1.34L746.73 2.09L764.34 3.01L780.20 4.10L794.68 5.36L808.04 6.80L820.46 8.40L832.08 10.17L843.00 12.12L853.30 14.25L863.05 16.55L872.30 19.03L881.09 21.70L889.46 24.54L897.44 27.57L905.06 30.79L912.34 34.21L919.30 37.81L925.96 41.62L932.33 45.62L938.42 49.83L944.24 54.26L949.82 58.90L955.15 63.76L960.24 68.85L965.10 74.18L969.74 79.76L974.17 85.58L978.38 91.67L982.38 98.04L986.19 104.70L989.79 111.66L993.21 118.94L996.43 126.56L999.46 134.54L1002.30 142.91L1004.97 151.70L1007.45 160.95L1009.75 170.70L1011.88 181.00L1013.83 191.92L1015.60 203.54L1017.20 215.96L1018.64 229.32L1019.90 243.80L1020.99 259.66L1021.91 277.27L1022.66 297.21L1023.25 320.48L1023.67 349.11L1023.92 388.53L1024.00 512.00Z" fill="url(#t)"></path>
  <g clip-path="url(#clip)">
    <line x1="232" y1="712" x2="482" y2="332" stroke="#4DD4DB" stroke-width="96" stroke-linecap="round" opacity="0.22"></line>
    <line x1="404" y1="712" x2="654" y2="332" stroke="#4DD4DB" stroke-width="96" stroke-linecap="round" opacity="0.5"></line>
    <line x1="576" y1="712" x2="826" y2="332" stroke="#4DD4DB" stroke-width="96" stroke-linecap="round" opacity="1"></line>
  </g>
  <g transform="translate(1,1)"><path d="M1022.00 511.00L1021.92 634.23L1021.67 673.57L1021.25 702.14L1020.67 725.37L1019.91 745.27L1018.99 762.84L1017.90 778.67L1016.65 793.13L1015.22 806.46L1013.62 818.86L1011.85 830.46L1009.90 841.36L1007.78 851.64L1005.48 861.37L1003.00 870.60L1000.34 879.37L997.50 887.72L994.48 895.69L991.27 903.30L987.86 910.56L984.26 917.51L980.47 924.15L976.47 930.51L972.26 936.58L967.85 942.40L963.22 947.96L958.36 953.28L953.28 958.36L947.96 963.22L942.40 967.85L936.58 972.26L930.51 976.47L924.15 980.47L917.51 984.26L910.56 987.86L903.30 991.27L895.69 994.48L887.72 997.50L879.37 1000.34L870.60 1003.00L861.37 1005.48L851.64 1007.78L841.36 1009.90L830.46 1011.85L818.86 1013.62L806.46 1015.22L793.13 1016.65L778.67 1017.90L762.84 1018.99L745.27 1019.91L725.37 1020.67L702.14 1021.25L673.57 1021.67L634.23 1021.92L511.00 1022.00L387.77 1021.92L348.43 1021.67L319.86 1021.25L296.63 1020.67L276.73 1019.91L259.16 1018.99L243.33 1017.90L228.87 1016.65L215.54 1015.22L203.14 1013.62L191.54 1011.85L180.64 1009.90L170.36 1007.78L160.63 1005.48L151.40 1003.00L142.63 1000.34L134.28 997.50L126.31 994.48L118.70 991.27L111.44 987.86L104.49 984.26L97.85 980.47L91.49 976.47L85.42 972.26L79.60 967.85L74.04 963.22L68.72 958.36L63.64 953.28L58.78 947.96L54.15 942.40L49.74 936.58L45.53 930.51L41.53 924.15L37.74 917.51L34.14 910.56L30.73 903.30L27.52 895.69L24.50 887.72L21.66 879.37L19.00 870.60L16.52 861.37L14.22 851.64L12.10 841.36L10.15 830.46L8.38 818.86L6.78 806.46L5.35 793.13L4.10 778.67L3.01 762.84L2.09 745.27L1.33 725.37L0.75 702.14L0.33 673.57L0.08 634.23L0.00 511.00L0.08 387.77L0.33 348.43L0.75 319.86L1.33 296.63L2.09 276.73L3.01 259.16L4.10 243.33L5.35 228.87L6.78 215.54L8.38 203.14L10.15 191.54L12.10 180.64L14.22 170.36L16.52 160.63L19.00 151.40L21.66 142.63L24.50 134.28L27.52 126.31L30.73 118.70L34.14 111.44L37.74 104.49L41.53 97.85L45.53 91.49L49.74 85.42L54.15 79.60L58.78 74.04L63.64 68.72L68.72 63.64L74.04 58.78L79.60 54.15L85.42 49.74L91.49 45.53L97.85 41.53L104.49 37.74L111.44 34.14L118.70 30.73L126.31 27.52L134.28 24.50L142.63 21.66L151.40 19.00L160.63 16.52L170.36 14.22L180.64 12.10L191.54 10.15L203.14 8.38L215.54 6.78L228.87 5.35L243.33 4.10L259.16 3.01L276.73 2.09L296.63 1.33L319.86 0.75L348.43 0.33L387.77 0.08L511.00 0.00L634.23 0.08L673.57 0.33L702.14 0.75L725.37 1.33L745.27 2.09L762.84 3.01L778.67 4.10L793.13 5.35L806.46 6.78L818.86 8.38L830.46 10.15L841.36 12.10L851.64 14.22L861.37 16.52L870.60 19.00L879.37 21.66L887.72 24.50L895.69 27.52L903.30 30.73L910.56 34.14L917.51 37.74L924.15 41.53L930.51 45.53L936.58 49.74L942.40 54.15L947.96 58.78L953.28 63.64L958.36 68.72L963.22 74.04L967.85 79.60L972.26 85.42L976.47 91.49L980.47 97.85L984.26 104.49L987.86 111.44L991.27 118.70L994.48 126.31L997.50 134.28L1000.34 142.63L1003.00 151.40L1005.48 160.63L1007.78 170.36L1009.90 180.64L1011.85 191.54L1013.62 203.14L1015.22 215.54L1016.65 228.87L1017.90 243.33L1018.99 259.16L1019.91 276.73L1020.67 296.63L1021.25 319.86L1021.67 348.43L1021.92 387.77L1022.00 511.00Z" fill="none" stroke="rgba(150,170,190,0.13)" stroke-width="2.5"></path></g>
</svg>